<svg width="114" height="114" viewBox="0 0 114 114" fill="none" xmlns="http://www.w3.org/2000/svg">
<circle cx="57" cy="57" r="56.5" stroke="#D25573"/>
<path d="M83 69.3594C83.0015 65.1378 81.9606 60.9791 79.967 57.241C77.9733 53.5029 75.0865 50.2973 71.555 47.9V36.2039H64.9997V44.6553C62.2625 43.7445 59.392 43.2815 56.5025 43.2847C56.3319 43.2847 56.1602 43.2847 55.9884 43.2847C56.3352 41.8672 56.1328 40.3734 55.4207 39.0947C54.7085 37.8161 53.5378 36.8444 52.1369 36.3692V30H48.2318V36.3692C47.3475 36.6698 46.5475 37.171 45.8965 37.8321C45.2455 38.4933 44.7617 39.2959 44.4843 40.1751C44.2069 41.0543 44.1437 41.9853 44.2997 42.893C44.4557 43.8007 44.8266 44.6595 45.3824 45.4001L45.3114 45.7136C40.7364 47.8103 36.865 51.1489 34.1525 55.3366C31.4401 59.5244 29.9994 64.3873 30 69.3532V73.5006H39.0474L38.5595 75.6673L41.8931 83.9878L44.2583 73.5006H56.0431L58.4083 84L61.742 75.6796L61.2515 73.5006H64.996V75.3856L68.2736 83.5272L71.5513 75.3856V73.5006H82.9963L83 69.3594ZM71.555 59.4295C72.7699 61.2059 73.6492 63.1835 74.1505 65.2671H71.555V59.4295ZM70.3276 42.3281H66.2271V41.1216H70.3276V42.3281ZM70.3276 37.4079V39.9152H66.2271V37.4091L70.3276 37.4079ZM56.3033 51.5231H56.5025C59.4653 51.523 62.383 52.2379 64.9997 53.6053V65.2659H59.398L56.3033 51.5231ZM55.5564 44.512C55.7743 44.5035 55.9946 44.4998 56.2149 44.4973V45.8177H57.4423V44.5133C60.0187 44.6037 62.5656 45.0837 64.9935 45.9365V52.2494C62.3478 50.9758 59.4416 50.3131 56.4963 50.3117C56.3394 50.3117 56.1826 50.3117 56.0257 50.3178L54.9328 45.4686C55.1732 45.1582 55.3817 44.8251 55.5552 44.4741L55.5564 44.512ZM49.4567 31.2102H50.9095V36.0961C50.4279 36.0373 49.9408 36.0373 49.4592 36.0961L49.4567 31.2102ZM50.1825 37.2597C51.1203 37.2597 52.037 37.5333 52.8167 38.046C53.5965 38.5586 54.2042 39.2873 54.5631 40.1398C54.922 40.9923 55.0159 41.9303 54.8329 42.8353C54.65 43.7403 54.1984 44.5716 53.5353 45.2241C52.8721 45.8766 52.0273 46.3209 51.1075 46.501C50.1877 46.681 49.2344 46.5886 48.368 46.2355C47.5015 45.8824 46.761 45.2844 46.24 44.5171C45.719 43.7499 45.4409 42.8479 45.4409 41.9251C45.4422 40.6878 45.9425 39.5015 46.832 38.6267C47.7215 37.752 48.9274 37.2603 50.185 37.2597H50.1825ZM48.8356 53.1962C49.6219 52.8337 50.4341 52.5279 51.2655 52.2813L54.1908 65.2647H46.1156L48.8356 53.1962ZM49.1654 51.7362L50.053 47.7946C50.0966 47.7946 50.1402 47.7946 50.185 47.7946H50.2547L51.0016 51.1017C50.3788 51.282 49.766 51.4938 49.1654 51.7362V51.7362ZM31.2324 72.2929V69.8077H33.071V68.5999H31.2448C31.3306 65.7023 31.9318 62.8419 33.0212 60.1485L34.6395 60.8062L35.1088 59.6904L33.5067 59.0375C34.7249 56.4145 36.3966 54.0195 38.4474 51.9591L39.5977 53.0909L40.469 52.2335L39.33 51.1128C41.0214 49.5703 42.9196 48.2631 44.9716 47.2275L43.0732 55.6545C40.1928 58.3703 38.2425 61.9005 37.4926 65.7558L37.352 66.4736H40.6346L39.3238 72.2917L31.2324 72.2929ZM40.9134 65.2671H38.8595C39.4979 62.5892 40.763 60.0949 42.5541 57.9829L40.9134 65.2671ZM41.5745 79.8723L39.8504 75.5681L46.4069 46.4632C47.1135 47.0352 47.9446 47.4392 48.8356 47.644L41.5745 79.8723ZM44.5396 72.2929L45.8505 66.4748H54.4697L55.7805 72.2929H44.5396ZM58.7482 79.887L51.4808 47.6575C52.3716 47.4621 53.2047 47.0677 53.9157 46.5049L60.4673 75.5804L58.7482 79.887ZM60.9889 72.2929L59.6781 66.4748H65.0059V72.2929H60.9889ZM68.2836 80.2483L66.2271 75.1541V43.5371H70.3276V57.7612L70.294 57.7894L70.3276 57.8286V75.1541L68.2836 80.2483ZM71.5612 72.2929V66.4748H75.6592L75.5186 65.7571C74.9145 62.6917 73.5533 59.8195 71.555 57.3938V49.3857C72.4223 50.0175 73.2476 50.7032 74.026 51.4386L73.2106 52.2408L74.082 53.0982L74.8924 52.3009C76.8548 54.3459 78.4497 56.7043 79.6091 59.2752L78.5709 59.6977L79.0414 60.8136L80.0796 60.3898C81.1113 63.0139 81.6825 65.7913 81.7689 68.6036H80.6099V69.8113H81.7801V72.2966L71.5612 72.2929ZM50.185 44.7239C50.7478 44.7239 51.2981 44.5597 51.7661 44.252C52.2341 43.9442 52.5988 43.5069 52.8142 42.9952C53.0295 42.4835 53.0858 41.9204 52.9759 41.3772C52.866 40.834 52.5948 40.3351 52.1967 39.9436C51.7986 39.552 51.2915 39.2855 50.7394 39.1776C50.1873 39.0697 49.6151 39.1253 49.0951 39.3374C48.5751 39.5495 48.1308 39.9086 47.8183 40.3692C47.5057 40.8298 47.339 41.3713 47.3393 41.9251C47.3403 42.6673 47.6404 43.3788 48.1739 43.9035C48.7074 44.4282 49.4307 44.7233 50.185 44.7239V44.7239ZM50.185 40.3328C50.505 40.3328 50.8179 40.4262 51.084 40.6012C51.3502 40.7762 51.5576 41.0248 51.6801 41.3158C51.8025 41.6068 51.8346 41.9269 51.7721 42.2358C51.7097 42.5447 51.5556 42.8284 51.3293 43.0511C51.1029 43.2738 50.8146 43.4254 50.5007 43.4869C50.1868 43.5483 49.8614 43.5168 49.5657 43.3962C49.27 43.2757 49.0172 43.0716 48.8394 42.8098C48.6616 42.5479 48.5667 42.2401 48.5667 41.9251C48.5667 41.5028 48.7372 41.0978 49.0407 40.7992C49.3441 40.5006 49.7558 40.3328 50.185 40.3328V40.3328Z" fill="#D25573"/>
</svg>
