<svg xmlns="http://www.w3.org/2000/svg" width="130" height="28" viewBox="0 0 130 28" fill="none">
<path d="M47.1085 6.33105V19.5567H44.5173V14.0985H39.6458V19.5567H37.0546V6.33105H39.6458V11.5793H44.5173V6.33105H47.1085Z" fill="white"/>
<path fill-rule="evenodd" clip-rule="evenodd" d="M50.6324 6.01562C49.8032 6.01562 49.1813 6.64542 49.1813 7.48514C49.1813 8.32486 49.8032 8.95465 50.6324 8.95465C51.4616 8.95465 52.0834 8.32486 52.0834 7.48514C52.0834 6.75038 51.4616 6.01562 50.6324 6.01562ZM51.7721 10.1095H49.3882V19.5563H51.7721V10.1095Z" fill="white"/>
<path d="M57.3944 12.2495V16.1322C57.3944 17.1816 58.0975 17.1816 59.4032 17.0767V19.2804C56.0886 19.7002 54.9838 18.6508 54.9838 16.1322V12.2495H53.3767V9.94085H54.9838V8.05195L57.2939 7.31738V9.94085H59.3028V12.2495H57.3944Z" fill="white"/>
<path d="M60.2651 14.9028C60.2651 12.089 62.3432 9.90039 65.1487 9.90039C67.019 9.90039 68.5775 10.8383 69.3049 12.2974L67.2268 13.548C66.8111 12.8185 66.0838 12.2974 65.0448 12.2974C63.5901 12.2974 62.551 13.3396 62.551 14.9028C62.551 16.3619 63.5901 17.404 65.0448 17.404C65.9799 17.404 66.8111 16.883 67.2268 16.1534L69.3049 17.404C68.4736 18.8631 66.915 19.801 65.0448 19.801C62.3432 19.801 60.2651 17.7167 60.2651 14.9028Z" fill="white"/>
<path d="M79.3438 13.7836V19.5567H76.8442V14.0985C76.8442 12.8389 76.1151 12.1041 74.9694 12.1041C73.8237 12.1041 72.8863 12.8389 72.8863 14.4134V19.5567H70.595V6.33105H72.9905V11.1595C73.5113 10.3197 74.5528 9.7949 75.8026 9.7949C77.7815 9.7949 79.3438 11.2644 79.3438 13.7836Z" fill="white"/>
<path d="M90.0722 13.7836V19.5567H87.6766V14.0985C87.6766 12.8389 86.9476 12.1041 85.8019 12.1041C84.6562 12.1041 83.7188 12.8389 83.7188 14.4134V19.5567H81.3233V6.33105H83.7188V11.1595C84.2396 10.3197 85.2811 9.7949 86.531 9.7949C88.5099 9.7949 90.0722 11.2644 90.0722 13.7836Z" fill="white"/>
<path fill-rule="evenodd" clip-rule="evenodd" d="M93.2998 6.01562C92.4665 6.01562 91.8416 6.64542 91.8416 7.48514C91.8416 8.32486 92.5707 8.95465 93.2998 8.95465C94.133 8.95465 94.7579 8.32486 94.7579 7.48514C94.7579 6.75038 94.133 6.01562 93.2998 6.01562ZM94.5484 10.1096H92.1529V19.5564H94.5484V10.1096Z" fill="white"/>
<path d="M102.662 19.3709L99.2392 15.1688V19.3709H96.8535V6.45703H99.2392V14.2464L102.455 10.1467H105.359L101.625 14.6563L105.463 19.3709H102.662Z" fill="white"/>
<path fill-rule="evenodd" clip-rule="evenodd" d="M112.491 16.6745C112.084 17.1956 111.371 17.6125 110.455 17.6125C109.233 17.6125 108.214 17.0914 107.909 15.945H114.833C114.935 15.5281 114.935 15.2155 114.935 14.9028C114.935 12.089 113 9.90039 110.251 9.90039C107.4 9.90039 105.465 12.089 105.465 14.9028C105.465 17.6125 107.4 19.801 110.455 19.801C112.186 19.801 113.611 19.0715 114.426 17.8209L112.491 16.6745ZM110.353 12.0892C111.269 12.0892 112.288 12.6102 112.593 13.9651H107.909C108.215 12.8187 109.131 12.0892 110.353 12.0892Z" fill="white"/>
<path d="M121.821 9.90039V12.5767C120.582 12.4738 119.032 12.9885 119.032 14.9443V19.3706H116.656V10.1063H119.032V11.6503C119.445 10.4151 120.582 9.90039 121.821 9.90039Z" fill="white"/>
<path d="M130 16.7787C130 18.7589 128.22 19.801 126.231 19.801C124.346 19.801 122.985 18.9673 122.252 17.6125L124.346 16.4661C124.66 17.1956 125.288 17.7167 126.231 17.7167C126.964 17.7167 127.487 17.404 127.487 16.883C127.487 15.5281 122.671 16.2576 122.671 12.9227C122.671 11.0468 124.346 9.90039 126.231 9.90039C127.801 9.90039 129.058 10.6299 129.791 11.8805L127.697 13.0269C127.383 12.4016 126.859 12.089 126.231 12.089C125.603 12.089 125.184 12.4016 125.184 12.8185C125.184 14.1733 130 13.3396 130 16.7787Z" fill="white"/>
<path fill-rule="evenodd" clip-rule="evenodd" d="M0 13.99C0 6.2178 6.2178 0 13.99 0C21.7623 0 27.9801 6.32143 27.9801 13.99C27.9801 21.6587 21.7623 27.9801 13.99 27.9801C6.32143 27.9801 0 21.7623 0 13.99ZM1.13944 13.9898C1.13944 21.0366 6.83909 26.8399 13.9896 26.8399C21.14 26.8399 26.9433 21.1402 26.9433 13.9898C26.9433 6.83928 21.14 1.036 13.9896 1.036C6.83909 1.036 1.13944 6.94291 1.13944 13.9898Z" fill="white"/>
<path d="M14.6357 15.7593H17.1467V20.6622H18.1511V15.7593H20.6622V14.6357H14.6357V15.7593Z" fill="white"/>
<path d="M13.0465 14.2051L10.5471 16.6004L8.15176 14.2051L7.3186 14.9341L9.81807 17.4336L7.3186 19.8289L8.15176 20.662L10.5471 18.1626L13.0465 20.662L13.7755 19.8289L11.3802 17.4336L13.7755 14.9341L13.0465 14.2051Z" fill="white"/>
<path fill-rule="evenodd" clip-rule="evenodd" d="M20.6632 10.3208C20.6632 11.9331 19.305 13.3439 17.529 13.3439C16.4843 13.3439 15.4396 12.84 14.7083 12.0339C13.768 10.6231 14.1859 8.70855 15.6485 7.80163C17.1111 6.89472 19.0961 7.2978 20.0364 8.70855L19.2006 9.51469L16.4843 12.1347C16.7977 12.2354 17.1111 12.3362 17.4246 12.3362C18.5737 12.3362 19.514 11.4293 19.514 10.3208H20.6632ZM18.5734 8.6077C18.26 8.40616 17.9466 8.30539 17.5287 8.30539C17.2153 8.30539 16.7974 8.40616 16.3795 8.6077C15.4393 9.2123 15.1258 10.4215 15.7527 11.3284L18.5734 8.6077Z" fill="white"/>
<path d="M10.5471 10.1754L8.15176 7.31738L7.3186 8.05834L10.0264 11.3397V13.7743H11.1719V11.3397L13.7755 8.05834L12.9424 7.31738L10.5471 10.1754Z" fill="white"/>
</svg>