<svg width="200" height="200" viewBox="0 0 200 200" fill="none" xmlns="http://www.w3.org/2000/svg">
<path d="M100 0C44.771 0 0 44.771 0 100C0 155.229 44.771 200 100 200C155.229 200 200 155.229 200 100C200 44.771 155.229 0 100 0ZM181.247 154.779C177.742 159.967 173.716 164.847 169.282 169.281C164.848 173.715 159.969 177.741 154.78 181.246C149.542 184.785 143.943 187.824 138.138 190.279C126.06 195.388 113.229 197.978 100.001 197.978C86.773 197.978 73.942 195.388 61.864 190.279C56.059 187.824 50.46 184.785 45.222 181.246C40.034 177.741 35.154 173.715 30.72 169.281C26.286 164.847 22.26 159.968 18.755 154.779C15.216 149.541 12.177 143.942 9.722 138.137C4.613 126.059 2.023 113.228 2.023 100C2.023 86.772 4.613 73.941 9.722 61.863C12.177 56.058 15.216 50.458 18.755 45.22C22.26 40.032 26.286 35.152 30.72 30.718C35.154 26.284 40.033 22.258 45.222 18.753C50.46 15.214 56.059 12.175 61.864 9.72C73.942 4.612 86.773 2.021 100.001 2.021C113.229 2.021 126.06 4.611 138.138 9.72C143.943 12.175 149.542 15.214 154.78 18.753C159.968 22.258 164.848 26.284 169.282 30.718C173.716 35.152 177.742 40.031 181.247 45.22C184.786 50.458 187.825 56.057 190.28 61.863C195.389 73.941 197.979 86.772 197.979 100C197.979 113.228 195.389 126.059 190.28 138.137C187.825 143.942 184.785 149.541 181.247 154.779ZM80.832 64.041V73.557H71.316V83.072H61.801V92.588H52.286V135.96H114.689V126.444H124.204V116.929H133.72V107.413H143.235V64.041H80.832V64.041ZM112.55 133.821H54.423V94.725H112.55V133.821V133.821ZM122.065 124.305H114.687V92.587H63.938V85.209H122.065V124.305V124.305ZM131.581 114.79H124.203V83.072H73.454V75.694H131.581V114.79ZM141.096 105.274H133.718V73.556H82.969V66.178H141.096V105.274V105.274ZM95.724 106.384L101.195 114.59L101.386 114.877L101.195 115.164L95.724 123.37L97.503 124.556L103.955 114.878L97.503 105.2L95.724 106.386V106.384ZM78.824 125.942L80.852 126.618L88.455 103.81L86.427 103.134L78.824 125.942ZM71.555 106.384L69.776 105.198L63.324 114.876L69.776 124.554L71.555 123.368L66.085 115.162L65.894 114.875L66.085 114.588L71.555 106.382V106.384Z" fill="#2186A2"/>
</svg>
