<svg xmlns="http://www.w3.org/2000/svg" xmlns:xlink="http://www.w3.org/1999/xlink" viewBox="0 0 169.65 169.65">
  <g fill="#1E4597" id="b2ad4e13-1d27-4973-af37-466a0c9108b5" data-name="Layer 1">
    <path d="M132.58,91.37l-.12-.09,0-.15a7.74,7.74,0,0,0-2.65-4.2A7.51,7.51,0,0,0,125,85.26h-14L111,85c-.74-2.2-3.38-4.44-7.24-6.15a37.48,37.48,0,0,0-14.89-2.93h-.91v.9a9.63,9.63,0,0,1-2,5.66,6.57,6.57,0,0,1-5.09,2.82H68.28l-.07-.36a5,5,0,0,0-1.49-2.69,4.88,4.88,0,0,0-3.35-1.31H63l-6.33.54-.24,0-.15-.2L54.4,78.69l-.56-.77.95.08h.54a4.91,4.91,0,0,0,4.93-4.92v-2a5,5,0,0,0-1.58-3.62,5,5,0,0,0-3.37-1.31h0l-.37,0L34.32,67.91v8.36l9,.76.25,0,.11.24,2,4.49.26.56-.62.06-3,.25V91l7.6.64.26,0,.11.23,5.08,11.24H125a7.51,7.51,0,0,0,4.74-1.67,7.68,7.68,0,0,0,2.65-4.19l0-.15.12-.1a3.57,3.57,0,0,0,0-5.67ZM86.47,84.51a10.79,10.79,0,0,0,3.2-6.42l0-.4h.4a35.39,35.39,0,0,1,12.18,2.46c3.08,1.25,5.46,2.86,6.51,4.42l.47.68H85.7ZM39.69,69.74v5.17l-.48,0-2.68-.23-.4,0v-5l.4,0,2.68-.22.48,0Zm2.2,5.36-.4,0V69.12l.4,0L55.09,68h.24a3.12,3.12,0,0,1,3.12,3.12v2a3.07,3.07,0,0,1-1,2.29,3.14,3.14,0,0,1-2.12.83h-.24Zm5.84,9.39v5.16l-.48,0-2.68-.22-.4,0v-5l.4,0,2.68-.23.48,0Zm.19-2.31-.13-.28-1.81-4-.3-.68.74.06,4.85.41.2,0,.12.16L53.85,81l.46.63-.77.06-5.31.45Zm2,7.66-.41,0v-6l.41,0,13.19-1.11.26,0a3.11,3.11,0,0,1,2.1.83,3.07,3.07,0,0,1,1,2.29v2A3.12,3.12,0,0,1,63.37,91h-.23Zm80.11,8.61a5.84,5.84,0,0,1-5,2.9H56.59l-.12-.26L52.6,92.53l-.31-.68.74.06,9.95.84h0l.38,0a4.92,4.92,0,0,0,4.93-4.93v-.77H125a5.82,5.82,0,0,1,5,2.9l.38.65h-55a3.59,3.59,0,0,0,0,7.17h55ZM130.4,96h-55a1.78,1.78,0,1,1,0-3.55h55a1.78,1.78,0,1,1,0,3.55Z"/>
  </g>
</svg>