<svg width="26" height="25" viewBox="0 0 26 25" fill="none" xmlns="http://www.w3.org/2000/svg">
<path d="M25.2061 7.84961V24.2163H20.6172V7.84961H25.2061ZM21.2783 23.5552H24.545V8.51628H21.2783V23.5552Z" fill="black"/>
<path d="M18.333 12.7607V24.2218H13.7441V12.7607H18.333ZM14.4052 23.5552H17.6719V13.4219H14.4052V23.5552Z" fill="black"/>
<path d="M11.46 16.1943V24.2166H6.87109V16.1943H11.46ZM7.5322 23.5554H10.7989V16.8554H7.5322V23.5554Z" fill="black"/>
<path d="M4.58889 18.4053V24.2219H0V18.4053H4.58889ZM0.661112 23.5553H3.92778V19.0608H0.661112V23.5553Z" fill="black"/>
<path d="M25.2051 0V3.60555H24.544V1.06667L24.2718 1.33889C21.1773 4.42222 17.2607 7.46111 13.2385 9.88889C8.64957 12.6556 4.1329 14.5111 0.149566 15.2555L0.0273438 14.6056C3.62734 13.9278 7.77734 12.2778 12.044 9.82777C16.3496 7.35 20.394 4.27222 23.7385 0.933333L24.0107 0.661111H21.594V0H25.2051Z" fill="black"/>
</svg>
